<svg width="51" height="52" viewBox="0 0 51 52" fill="none" xmlns="http://www.w3.org/2000/svg">
<g clip-path="url(#clip0_1_597)">
<path d="M49.5693 9.88509H37.8616C39.1462 7.99843 39.2702 5.45117 37.9737 3.40383C36.2338 0.656112 32.5815 -0.164176 29.8339 1.57569C29.1386 2.01608 27.978 3.04576 25.9366 6.88544C25.7541 7.22962 25.5795 7.56686 25.4149 7.89121C25.2502 7.56686 25.0757 7.22962 24.8931 6.88544C22.8518 3.04566 21.6912 2.01608 20.9958 1.57569C18.2482 -0.164176 14.5959 0.656211 12.856 3.40383C12.0129 4.73503 11.7391 6.3151 12.0844 7.85262C12.25 8.59157 12.5496 9.27806 12.9642 9.88509H1.26044V24.2888H3.0003V51.4468H47.8295V24.2888H49.5693V9.88509ZM31.425 4.09031C31.8991 3.78977 32.4367 3.63603 32.9843 3.63603C33.1986 3.63603 33.4158 3.65983 33.6301 3.70744C34.3918 3.87904 35.0416 4.3363 35.4602 4.996C36.3221 6.35795 35.9155 8.16814 34.5536 9.03019C33.7343 9.54993 30.7307 9.83956 27.7401 9.8842C29.0593 7.19986 30.6057 4.60906 31.425 4.09031ZM15.3697 4.9958C15.7883 4.3362 16.438 3.87894 17.1998 3.70724C17.4141 3.65963 17.6313 3.63583 17.8455 3.63583C18.393 3.63583 18.9306 3.78957 19.4049 4.09011C20.2242 4.60887 21.7706 7.19976 23.0899 9.884C21.595 9.86119 20.0963 9.77787 18.8692 9.63504C17.6422 9.4922 16.686 9.28986 16.2764 9.02999C15.6168 8.6124 15.1584 7.96272 14.9878 7.20086C14.8161 6.43909 14.952 5.6555 15.3697 4.9958ZM19.3939 48.471H5.97605V24.2888H19.3939V48.471ZM19.3939 21.3131H4.23629V12.8608H19.3939V21.3131H19.3939ZM28.4602 48.471H22.3697V12.8608H28.4602V48.471ZM44.8537 48.471H31.4359V24.2888H44.8537V48.471ZM46.5936 21.3131H31.4359V12.8608H46.5936V21.3131Z" fill="black"/>
</g>
<defs>
<clipPath id="clip0_1_597">
<rect width="50.7844" height="50.7844" fill="white" transform="translate(0.0227051 0.662598)"/>
</clipPath>
</defs>
</svg>
