<svg width="62" height="62" viewBox="0 0 62 62" fill="none" xmlns="http://www.w3.org/2000/svg">
<g filter="url(#filter0_d_1_662)">
<g clip-path="url(#clip0_1_662)">
<path d="M11.1127 11.6736C7.92007 14.9898 8.57349 18.5125 8.57349 29.2145C8.57349 38.1018 7.02288 47.0111 15.1382 49.1085C17.6724 49.7602 40.1258 49.7602 42.6566 49.1051C46.0355 48.2333 48.7846 45.4926 49.1604 40.7138C49.2129 40.0468 49.2129 18.394 49.1587 17.7135C48.7592 12.6232 45.6258 9.68959 41.497 9.09541C40.5507 8.95829 40.3611 8.91767 35.5062 8.9092C18.2852 8.91767 14.5102 8.15082 11.1127 11.6736Z" fill="url(#paint0_linear_1_662)"/>
<path d="M28.8839 14.2235C22.7373 14.2235 16.9005 13.6767 14.671 19.3984C13.7501 21.7616 13.8839 24.8306 13.8839 29.2252C13.8839 33.0814 13.7603 36.7057 14.671 39.0503C16.8954 44.7754 22.7796 44.2269 28.8805 44.2269C34.7664 44.2269 40.8352 44.8397 43.0917 39.0503C44.0143 36.6634 43.8789 33.64 43.8789 29.2252C43.8789 23.3647 44.2022 19.5812 41.3599 16.7407C38.4822 13.8629 34.5904 14.2235 28.8771 14.2235H28.8839ZM27.5398 16.9269C40.3612 16.9066 41.9931 15.4812 41.0925 35.2821C40.7725 42.2852 35.4402 41.5167 28.8856 41.5167C16.9343 41.5167 16.5907 41.1748 16.5907 29.2184C16.5907 17.1233 17.5387 16.9337 27.5398 16.9235V16.9269ZM36.8909 19.417C35.8972 19.417 35.0914 20.2228 35.0914 21.2165C35.0914 22.2102 35.8972 23.0159 36.8909 23.0159C37.8846 23.0159 38.6904 22.2102 38.6904 21.2165C38.6904 20.2228 37.8846 19.417 36.8909 19.417ZM28.8839 21.5212C24.6299 21.5212 21.1816 24.9711 21.1816 29.2252C21.1816 33.4792 24.6299 36.9275 28.8839 36.9275C33.1379 36.9275 36.5845 33.4792 36.5845 29.2252C36.5845 24.9711 33.1379 21.5212 28.8839 21.5212ZM28.8839 24.2246C35.4943 24.2246 35.5028 34.2258 28.8839 34.2258C22.2751 34.2258 22.265 24.2246 28.8839 24.2246Z" fill="white"/>
</g>
</g>
<defs>
<filter id="filter0_d_1_662" x="0.447978" y="0.784648" width="60.9413" height="60.9412" filterUnits="userSpaceOnUse" color-interpolation-filters="sRGB">
<feFlood flood-opacity="0" result="BackgroundImageFix"/>
<feColorMatrix in="SourceAlpha" type="matrix" values="0 0 0 0 0 0 0 0 0 0 0 0 0 0 0 0 0 0 127 0" result="hardAlpha"/>
<feOffset dx="2.03138" dy="2.03138"/>
<feGaussianBlur stdDeviation="5.07844"/>
<feComposite in2="hardAlpha" operator="out"/>
<feColorMatrix type="matrix" values="0 0 0 0 0 0 0 0 0 0 0 0 0 0 0 0 0 0 0.25 0"/>
<feBlend mode="normal" in2="BackgroundImageFix" result="effect1_dropShadow_1_662"/>
<feBlend mode="normal" in="SourceGraphic" in2="effect1_dropShadow_1_662" result="shape"/>
</filter>
<linearGradient id="paint0_linear_1_662" x1="11.1906" y1="46.9418" x2="48.9496" y2="14.2618" gradientUnits="userSpaceOnUse">
<stop stop-color="#FFDD55"/>
<stop offset="0.5" stop-color="#FF543E"/>
<stop offset="1" stop-color="#C837AB"/>
</linearGradient>
<clipPath id="clip0_1_662">
<rect x="8.57349" y="8.91016" width="40.6275" height="40.6275" rx="10.1569" fill="white"/>
</clipPath>
</defs>
</svg>
