<?xml version="1.0" encoding="UTF-8"?>
<svg xmlns="http://www.w3.org/2000/svg" xmlns:xlink="http://www.w3.org/1999/xlink" width="80px" height="80px" viewBox="0 0 80 80" version="1.1">
<defs>
<filter id="alpha" filterUnits="objectBoundingBox" x="0%" y="0%" width="100%" height="100%">
  <feColorMatrix type="matrix" in="SourceGraphic" values="0 0 0 0 1 0 0 0 0 1 0 0 0 0 1 0 0 0 1 0"/>
</filter>
<mask id="mask0">
  <g filter="url(#alpha)">
<rect x="0" y="0" width="80" height="80" style="fill:rgb(0%,0%,0%);fill-opacity:0.290196;stroke:none;"/>
  </g>
</mask>
<clipPath id="clip1">
  <rect x="0" y="0" width="80" height="80"/>
</clipPath>
<g id="surface5" clip-path="url(#clip1)">
<path style=" stroke:none;fill-rule:nonzero;fill:rgb(0%,50.588235%,76.470588%);fill-opacity:1;" d="M 41.4375 26.925781 L 44.230469 30.011719 L 49.03125 26.785156 L 40 15.425781 L 40 22.714844 L 42.554688 25.660156 Z M 41.4375 26.925781 "/>
</g>
<mask id="mask1">
  <g filter="url(#alpha)">
<rect x="0" y="0" width="80" height="80" style="fill:rgb(0%,0%,0%);fill-opacity:0.290196;stroke:none;"/>
  </g>
</mask>
<clipPath id="clip2">
  <rect x="0" y="0" width="80" height="80"/>
</clipPath>
<g id="surface8" clip-path="url(#clip2)">
<path style=" stroke:none;fill-rule:nonzero;fill:rgb(0%,50.588235%,76.470588%);fill-opacity:1;" d="M 47.90625 31.550781 L 51.882812 25.804688 L 44.671875 30.433594 Z M 47.90625 31.550781 "/>
</g>
<mask id="mask2">
  <g filter="url(#alpha)">
<rect x="0" y="0" width="80" height="80" style="fill:rgb(0%,0%,0%);fill-opacity:0.290196;stroke:none;"/>
  </g>
</mask>
<clipPath id="clip3">
  <rect x="0" y="0" width="80" height="80"/>
</clipPath>
<g id="surface11" clip-path="url(#clip3)">
<path style=" stroke:none;fill-rule:nonzero;fill:rgb(0%,50.588235%,76.470588%);fill-opacity:1;" d="M 34.921875 31.273438 L 36.929688 33.515625 L 34.214844 22.296875 L 32.679688 21.597656 L 32.679688 27.203125 L 34.921875 29.308594 Z M 34.921875 31.273438 "/>
</g>
</defs>
<g id="surface1">
<path style=" stroke:none;fill-rule:nonzero;fill:rgb(79.607843%,88.235294%,95.686275%);fill-opacity:1;" d="M 69.554688 18.34375 C 61.804688 9.3125 51.292969 4.339844 39.976562 4.339844 C 28.664062 4.339844 18.164062 9.3125 10.414062 18.34375 L 9.519531 19.390625 L 9.519531 48.105469 C 9.519531 48.484375 9.597656 57.433594 17.191406 61.855469 L 17.066406 61.785156 L 39.964844 76.207031 L 62.863281 61.785156 L 62.773438 61.855469 C 70.367188 57.433594 70.480469 48.484375 70.480469 48.105469 L 70.480469 19.390625 Z M 68.238281 48.105469 C 68.238281 48.445312 68.253906 56.445312 61.5625 60.339844 L 61.71875 60.304688 L 39.933594 74.015625 L 18.128906 60.304688 L 18.113281 60.339844 C 11.421875 56.445312 11.199219 48.445312 11.199219 48.105469 L 11.199219 27.589844 C 11.199219 27.539062 11.199219 27.496094 11.199219 27.464844 L 11.199219 20.007812 L 11.796875 19.449219 C 19.160156 10.867188 29.214844 6.144531 39.902344 6.144531 C 50.59375 6.144531 60.492188 10.867188 67.855469 19.453125 L 68.234375 20.011719 L 68.234375 48.105469 Z M 68.238281 48.105469 "/>
<path style=" stroke:none;fill-rule:nonzero;fill:rgb(25.882353%,48.235294%,61.960784%);fill-opacity:1;" d="M 39.90625 6.144531 C 29.21875 6.144531 19.160156 10.867188 11.796875 19.453125 L 11.199219 20.011719 L 11.199219 27.46875 C 11.199219 27.5 11.199219 27.542969 11.199219 27.59375 L 11.199219 48.109375 C 11.199219 48.449219 11.421875 56.449219 18.109375 60.34375 L 18.121094 60.308594 L 39.925781 74.019531 L 61.710938 60.308594 L 61.5625 60.34375 C 68.253906 56.449219 68.238281 48.449219 68.238281 48.109375 L 68.238281 20.007812 L 67.859375 19.449219 C 60.496094 10.867188 50.597656 6.144531 39.90625 6.144531 Z M 63.5625 22.015625 C 63.5625 22.015625 62.679688 24.398438 60.179688 23.839844 C 57.679688 23.28125 56.945312 24.121094 56.945312 24.121094 C 56.945312 24.121094 57.828125 22.015625 60.035156 22.4375 C 62.238281 22.855469 62.679688 22.855469 63.5625 22.015625 Z M 60.503906 16.257812 C 60.503906 16.257812 60.503906 18.785156 57.953125 19.046875 C 55.394531 19.316406 55 20.339844 55 20.339844 C 55 20.339844 55.097656 18.074219 57.324219 17.773438 C 59.550781 17.46875 59.96875 17.328125 60.503906 16.257812 Z M 53.609375 13.859375 C 55.265625 13.125 55.550781 12.925781 55.707031 11.96875 C 55.707031 11.96875 56.332031 13.933594 54.410156 14.707031 C 52.492188 15.488281 52.4375 16.371094 52.4375 16.371094 C 52.4375 16.371094 51.953125 14.597656 53.609375 13.859375 Z M 48.113281 11.0625 C 49.09375 10.175781 49.246094 9.96875 49.121094 9.265625 C 49.121094 9.265625 50.042969 10.503906 48.886719 11.480469 C 47.730469 12.460938 47.910156 13.097656 47.910156 13.097656 C 47.910156 13.097656 47.128906 11.957031 48.113281 11.0625 Z M 43.109375 9.664062 C 44.089844 8.777344 44.242188 8.566406 44.117188 7.863281 C 44.117188 7.863281 45.039062 9.105469 43.882812 10.078125 C 42.726562 11.058594 42.90625 11.695312 42.90625 11.695312 C 42.90625 11.695312 42.125 10.550781 43.109375 9.664062 Z M 37.855469 7.507812 C 37.597656 8.179688 37.707031 8.40625 38.507812 9.453125 C 39.308594 10.492188 38.328125 11.484375 38.328125 11.484375 C 38.328125 11.484375 38.625 10.886719 37.667969 9.726562 C 36.710938 8.570312 37.855469 7.507812 37.855469 7.507812 Z M 30.863281 9.125 C 30.734375 9.828125 30.886719 10.035156 31.871094 10.925781 C 32.851562 11.8125 32.070312 12.957031 32.070312 12.957031 C 32.070312 12.957031 32.253906 12.320312 31.097656 11.339844 C 29.941406 10.363281 30.863281 9.125 30.863281 9.125 Z M 24.273438 11.828125 C 24.425781 12.785156 24.710938 12.984375 26.371094 13.71875 C 28.027344 14.457031 27.546875 16.234375 27.546875 16.234375 C 27.546875 16.234375 27.492188 15.347656 25.570312 14.570312 C 23.648438 13.792969 24.273438 11.828125 24.273438 11.828125 Z M 22.660156 17.632812 C 24.886719 17.9375 24.984375 20.199219 24.984375 20.199219 C 24.984375 20.199219 24.585938 19.171875 22.027344 18.90625 C 19.472656 18.644531 19.476562 16.113281 19.476562 16.113281 C 20.011719 17.1875 20.433594 17.328125 22.660156 17.632812 Z M 19.949219 22.296875 C 22.15625 21.875 23.039062 23.980469 23.039062 23.980469 C 23.039062 23.980469 22.304688 23.140625 19.804688 23.699219 C 17.304688 24.261719 16.421875 21.875 16.421875 21.875 C 17.300781 22.714844 17.738281 22.714844 19.949219 22.296875 Z M 64.28125 28.089844 C 63.160156 32.195312 60.535156 35.394531 49.226562 36.503906 C 45.0625 36.910156 42.210938 38.546875 40.300781 40.453125 C 40.15625 40.738281 40.03125 41.046875 39.894531 41.382812 C 39.988281 41.890625 40 42.210938 40 42.210938 L 40 45.480469 C 40 44.667969 42.519531 38.019531 49.65625 37.320312 C 57.011719 36.601562 61.441406 36.238281 64.28125 33.992188 C 64.28125 40.902344 64.28125 48.101562 64.28125 48.101562 C 64.28125 48.152344 64.269531 54.171875 59.578125 56.902344 L 59.585938 56.941406 C 59.585938 56.941406 41.691406 68.035156 40 69.304688 L 40 71.398438 L 39.441406 71.398438 L 39.441406 69.058594 C 36.039062 67.007812 20.230469 56.929688 20.230469 56.929688 L 20.359375 56.910156 C 15.667969 54.175781 15.71875 48.15625 15.71875 48.097656 C 15.71875 48.097656 15.71875 40.722656 15.71875 33.738281 C 18 35.453125 22.03125 37.03125 28.523438 37.742188 C 35.6875 38.53125 38.878906 42.546875 39.441406 44.410156 L 39.441406 42.316406 C 39.441406 42.636719 39.441406 42.972656 39.441406 43.332031 L 39.441406 42.210938 C 39.441406 42.210938 39.296875 41.882812 39.386719 41.363281 C 39.292969 41.136719 39.132812 40.914062 39.035156 40.707031 C 36.980469 38.429688 33.667969 37.015625 29.054688 36.507812 C 17.851562 35.277344 15.722656 30.109375 15.722656 28.226562 C 15.722656 26.773438 15.722656 25.457031 15.722656 24.378906 C 15.722656 25.964844 17.632812 29.9375 26.441406 32.257812 C 33.449219 34.101562 36.371094 35.246094 37.871094 37.089844 C 37.203125 35.621094 35.679688 33.863281 31.429688 32.539062 C 31.429688 32.539062 24.957031 30.574219 23.335938 29.59375 L 23.660156 29.292969 C 23.644531 29.042969 23.628906 28.792969 23.628906 28.539062 C 23.628906 19.941406 30.941406 12.972656 39.964844 12.972656 C 48.886719 12.972656 56.136719 19.796875 56.292969 28.265625 L 57.328125 29.03125 C 57.328125 29.03125 55.519531 30.132812 50.117188 31.554688 C 44.824219 32.953125 41.691406 34.601562 40.445312 37.433594 C 41.808594 35.285156 44.898438 34.035156 52.46875 32.261719 C 60.90625 30.28125 63.71875 26.136719 64.28125 23.867188 C 64.28125 24.988281 64.28125 26.449219 64.28125 28.089844 Z M 64.28125 28.089844 "/>
<path style=" stroke:none;fill-rule:nonzero;fill:rgb(25.882353%,48.235294%,61.960784%);fill-opacity:1;" d="M 39.578125 42.210938 C 39.574219 42.199219 39.570312 42.191406 39.566406 42.179688 C 39.5625 42.191406 39.558594 42.199219 39.554688 42.210938 Z M 39.578125 42.210938 "/>
<path style=" stroke:none;fill-rule:nonzero;fill:rgb(84.313725%,44.313725%,27.058824%);fill-opacity:1;" d="M 34.222656 21.597656 L 39.816406 14.441406 L 49.675781 26.363281 L 52.03125 25.101562 L 56.292969 28.261719 C 56.136719 19.792969 48.886719 12.96875 39.964844 12.96875 C 30.945312 12.96875 23.628906 19.941406 23.628906 28.535156 C 23.628906 28.789062 23.644531 29.035156 23.660156 29.289062 L 32.753906 20.890625 Z M 34.222656 21.597656 "/>
<path style=" stroke:none;fill-rule:nonzero;fill:rgb(0%,50.588235%,76.470588%);fill-opacity:1;" d="M 48.007812 35.761719 C 60.714844 33.515625 62.035156 29.589844 61.597656 29.867188 C 59.757812 32.324219 55.269531 33.097656 47.175781 34.777344 C 42.738281 35.679688 40.769531 37.765625 39.882812 39.496094 C 39.753906 39.753906 39.648438 40.003906 39.558594 40.238281 C 39.304688 39.558594 38.886719 38.773438 38.207031 38 C 37.039062 36.667969 35.105469 35.367188 31.867188 34.707031 C 23.777344 33.023438 19.875 32.183594 17.886719 29.589844 C 17.449219 29.308594 18.921875 33.097656 31.132812 35.761719 C 35.921875 37.097656 37.648438 37.90625 38.96875 40.707031 C 39.0625 40.914062 39.292969 41.136719 39.386719 41.363281 C 39.296875 41.882812 39.441406 42.210938 39.441406 42.210938 L 39.441406 43.332031 C 39.441406 42.96875 39.441406 42.636719 39.441406 42.316406 L 39.441406 71.398438 L 40 71.398438 L 40 42.214844 C 40 42.214844 39.988281 41.894531 39.894531 41.386719 C 40.03125 41.050781 40.164062 40.742188 40.308594 40.457031 C 41.613281 37.859375 43.367188 37.054688 48.007812 35.761719 Z M 39.578125 42.210938 L 39.558594 42.210938 C 39.5625 42.199219 39.566406 42.191406 39.570312 42.179688 C 39.570312 42.191406 39.574219 42.203125 39.578125 42.210938 Z M 39.578125 42.210938 "/>
<path style=" stroke:none;fill-rule:nonzero;fill:rgb(100%,100%,99.607843%);fill-opacity:1;" d="M 41.4375 26.925781 L 44.230469 30.011719 L 49.03125 26.785156 L 40 15.425781 L 40 22.714844 L 42.554688 25.660156 Z M 41.4375 26.925781 "/>
<use xlink:href="#surface5" mask="url(#mask0)"/>
<path style=" stroke:none;fill-rule:nonzero;fill:rgb(100%,100%,99.607843%);fill-opacity:1;" d="M 47.90625 31.550781 L 51.882812 25.804688 L 44.671875 30.433594 Z M 47.90625 31.550781 "/>
<use xlink:href="#surface8" mask="url(#mask1)"/>
<path style=" stroke:none;fill-rule:nonzero;fill:rgb(100%,100%,99.607843%);fill-opacity:1;" d="M 34.921875 31.273438 L 36.929688 33.515625 L 34.214844 22.296875 L 32.679688 21.597656 L 32.679688 27.203125 L 34.921875 29.308594 Z M 34.921875 31.273438 "/>
<use xlink:href="#surface11" mask="url(#mask2)"/>
<path style=" stroke:none;fill-rule:nonzero;fill:rgb(84.313725%,44.313725%,27.058824%);fill-opacity:1;" d="M 19.800781 23.699219 C 22.300781 23.140625 23.035156 23.980469 23.035156 23.980469 C 23.035156 23.980469 22.152344 21.875 19.945312 22.296875 C 17.734375 22.714844 17.296875 22.714844 16.410156 21.875 C 16.414062 21.875 17.300781 24.261719 19.800781 23.699219 Z M 19.800781 23.699219 "/>
<path style=" stroke:none;fill-rule:nonzero;fill:rgb(84.313725%,44.313725%,27.058824%);fill-opacity:1;" d="M 22.027344 18.90625 C 24.585938 19.171875 24.984375 20.199219 24.984375 20.199219 C 24.984375 20.199219 24.886719 17.9375 22.660156 17.632812 C 20.433594 17.328125 20.015625 17.1875 19.476562 16.113281 C 19.476562 16.117188 19.476562 18.644531 22.027344 18.90625 Z M 22.027344 18.90625 "/>
<path style=" stroke:none;fill-rule:nonzero;fill:rgb(84.313725%,44.313725%,27.058824%);fill-opacity:1;" d="M 25.566406 14.570312 C 27.488281 15.347656 27.542969 16.234375 27.542969 16.234375 C 27.542969 16.234375 28.023438 14.457031 26.367188 13.71875 C 24.710938 12.984375 24.425781 12.785156 24.269531 11.828125 C 24.273438 11.828125 23.648438 13.792969 25.566406 14.570312 Z M 25.566406 14.570312 "/>
<path style=" stroke:none;fill-rule:nonzero;fill:rgb(84.313725%,44.313725%,27.058824%);fill-opacity:1;" d="M 31.097656 11.339844 C 32.253906 12.320312 32.070312 12.957031 32.070312 12.957031 C 32.070312 12.957031 32.851562 11.8125 31.871094 10.925781 C 30.890625 10.035156 30.734375 9.828125 30.863281 9.125 C 30.863281 9.125 29.941406 10.363281 31.097656 11.339844 Z M 31.097656 11.339844 "/>
<path style=" stroke:none;fill-rule:nonzero;fill:rgb(84.313725%,44.313725%,27.058824%);fill-opacity:1;" d="M 56.941406 24.121094 C 56.941406 24.121094 57.675781 23.28125 60.175781 23.839844 C 62.675781 24.398438 63.558594 22.015625 63.558594 22.015625 C 62.675781 22.855469 62.234375 22.855469 60.027344 22.4375 C 57.824219 22.015625 56.941406 24.121094 56.941406 24.121094 Z M 56.941406 24.121094 "/>
<path style=" stroke:none;fill-rule:nonzero;fill:rgb(84.313725%,44.313725%,27.058824%);fill-opacity:1;" d="M 54.996094 20.34375 C 54.996094 20.34375 55.394531 19.316406 57.949219 19.050781 C 60.503906 18.789062 60.5 16.261719 60.5 16.261719 C 59.964844 17.335938 59.542969 17.476562 57.316406 17.78125 C 55.09375 18.074219 54.996094 20.34375 54.996094 20.34375 Z M 54.996094 20.34375 "/>
<path style=" stroke:none;fill-rule:nonzero;fill:rgb(84.313725%,44.313725%,27.058824%);fill-opacity:1;" d="M 54.410156 14.710938 C 56.332031 13.9375 55.707031 11.972656 55.707031 11.972656 C 55.554688 12.929688 55.265625 13.128906 53.609375 13.863281 C 51.953125 14.601562 52.4375 16.378906 52.4375 16.378906 C 52.4375 16.378906 52.492188 15.488281 54.410156 14.710938 Z M 54.410156 14.710938 "/>
<path style=" stroke:none;fill-rule:nonzero;fill:rgb(84.313725%,44.313725%,27.058824%);fill-opacity:1;" d="M 48.882812 11.484375 C 50.039062 10.503906 49.117188 9.269531 49.117188 9.269531 C 49.242188 9.972656 49.09375 10.179688 48.109375 11.066406 C 47.128906 11.957031 47.90625 13.101562 47.90625 13.101562 C 47.90625 13.101562 47.730469 12.460938 48.882812 11.484375 Z M 48.882812 11.484375 "/>
<path style=" stroke:none;fill-rule:nonzero;fill:rgb(84.313725%,44.313725%,27.058824%);fill-opacity:1;" d="M 43.878906 10.078125 C 45.035156 9.101562 44.113281 7.863281 44.113281 7.863281 C 44.238281 8.566406 44.089844 8.777344 43.105469 9.664062 C 42.125 10.550781 42.902344 11.695312 42.902344 11.695312 C 42.902344 11.695312 42.726562 11.054688 43.878906 10.078125 Z M 43.878906 10.078125 "/>
<path style=" stroke:none;fill-rule:nonzero;fill:rgb(84.313725%,44.313725%,27.058824%);fill-opacity:1;" d="M 38.324219 11.484375 C 38.324219 11.484375 39.304688 10.492188 38.503906 9.453125 C 37.703125 8.40625 37.59375 8.179688 37.851562 7.507812 C 37.851562 7.507812 36.707031 8.570312 37.664062 9.726562 C 38.621094 10.886719 38.324219 11.484375 38.324219 11.484375 Z M 38.324219 11.484375 "/>
</g>
</svg>
