<svg width="62" height="62" viewBox="0 0 62 62" fill="none" xmlns="http://www.w3.org/2000/svg">
<g filter="url(#filter0_d_1_665)">
<g clip-path="url(#clip0_1_665)">
<path d="M49.0482 8.91016H8.42065V49.5377H49.0482V8.91016Z" fill="#44678D"/>
<path d="M18.9455 21.2738C19.9192 23.6783 21.1532 25.9453 22.7784 27.9805C22.994 28.2513 23.2657 28.4921 23.552 28.6881C23.9701 28.9753 24.3645 28.8744 24.5346 28.3961C24.7144 27.8942 24.8794 26.877 24.8892 26.3499C24.916 24.9728 24.8852 24.0703 24.8112 22.6948C24.7632 21.8138 24.45 21.0403 23.1542 20.8068C22.754 20.7344 22.7168 20.405 22.9739 20.0764C23.5092 19.3923 24.2548 19.2833 25.0634 19.2401C26.3739 19.1693 27.6891 19.2271 29.0012 19.2401C29.5357 19.245 30.0733 19.2881 30.5996 19.4028C31.2862 19.5525 31.6538 20.0341 31.767 20.7043C31.8255 21.05 31.8557 21.4054 31.8475 21.7553C31.8133 23.2585 31.7409 24.7609 31.7238 26.2633C31.7165 26.853 31.7596 27.4574 31.8857 28.0317C32.0622 28.8321 32.6072 29.033 33.1644 28.4547C33.8721 27.7202 34.496 26.8938 35.0817 26.0543C36.1456 24.5275 36.9403 22.8519 37.6244 21.1242C37.9783 20.2327 38.2492 20.0391 39.2081 20.0367C41.0107 20.0326 42.8133 20.031 44.6159 20.0367C44.9356 20.0383 45.2699 20.0684 45.5716 20.1644C46.0613 20.3206 46.2557 20.72 46.141 21.2268C45.8734 22.4144 45.2316 23.4238 44.5443 24.3943C43.4413 25.9512 42.2854 27.4707 41.1564 29.0097C41.0124 29.2057 40.8856 29.4148 40.7675 29.627C40.3453 30.39 40.3746 30.8179 40.9904 31.4531C41.9706 32.4643 43.0199 33.4102 43.9692 34.449C44.659 35.2047 45.2975 36.0246 45.8441 36.8876C46.5356 37.9792 46.1085 39.0074 44.8168 39.1904C44.0042 39.3051 40.0348 39.1913 39.8297 39.1904C38.7625 39.1856 37.8271 38.8154 37.0738 38.0907C36.2359 37.2838 35.4745 36.3987 34.6701 35.5568C34.4277 35.303 34.169 35.0598 33.89 34.8475C33.2319 34.3455 32.586 34.457 32.2786 35.2298C32.0159 35.8936 31.7889 37.6367 31.7783 37.7856C31.723 38.564 31.2276 39.0602 30.3556 39.1082C27.838 39.2449 25.3985 38.9642 23.1258 37.7465C21.1996 36.7151 19.6615 35.2566 18.329 33.5558C16.2125 30.8542 14.5407 27.8846 13.0144 24.8278C12.9364 24.6716 11.3905 21.382 11.3489 21.2266C11.2108 20.7063 11.3397 20.2093 11.7792 20.0383C12.0533 19.9316 17.1502 20.0379 17.235 20.0425C18.0483 20.0865 18.6029 20.4296 18.9455 21.2738Z" fill="white"/>
</g>
</g>
<defs>
<filter id="filter0_d_1_665" x="0.295146" y="0.784648" width="60.9413" height="60.9412" filterUnits="userSpaceOnUse" color-interpolation-filters="sRGB">
<feFlood flood-opacity="0" result="BackgroundImageFix"/>
<feColorMatrix in="SourceAlpha" type="matrix" values="0 0 0 0 0 0 0 0 0 0 0 0 0 0 0 0 0 0 127 0" result="hardAlpha"/>
<feOffset dx="2.03138" dy="2.03138"/>
<feGaussianBlur stdDeviation="5.07844"/>
<feComposite in2="hardAlpha" operator="out"/>
<feColorMatrix type="matrix" values="0 0 0 0 0 0 0 0 0 0 0 0 0 0 0 0 0 0 0.25 0"/>
<feBlend mode="normal" in2="BackgroundImageFix" result="effect1_dropShadow_1_665"/>
<feBlend mode="normal" in="SourceGraphic" in2="effect1_dropShadow_1_665" result="shape"/>
</filter>
<clipPath id="clip0_1_665">
<rect x="8.42065" y="8.91016" width="40.6275" height="40.6275" rx="10.1569" fill="white"/>
</clipPath>
</defs>
</svg>
