<svg width="62" height="62" viewBox="0 0 62 62" fill="none" xmlns="http://www.w3.org/2000/svg">
<g filter="url(#filter0_d_1_669)">
<g clip-path="url(#clip0_1_669)">
<path d="M48.8954 8.91016H8.26782V49.5377H48.8954V8.91016Z" fill="#1BD741"/>
<path d="M14.374 43.4467L16.364 36.3786C15.0843 34.2046 14.4105 31.731 14.4105 29.1899C14.4105 21.3658 20.7759 15.0005 28.5999 15.0005C36.424 15.0005 42.7893 21.3658 42.7893 29.1899C42.7893 37.014 36.424 43.3794 28.5999 43.3794C26.162 43.3794 23.7748 42.7553 21.663 41.5704L14.374 43.4467ZM22.0356 38.9889L22.4699 39.2541C24.3112 40.3782 26.431 40.9724 28.5999 40.9724C35.0968 40.9724 40.3823 35.6868 40.3823 29.1899C40.3823 22.6931 35.0968 17.4075 28.5999 17.4075C22.1031 17.4075 16.8175 22.6931 16.8175 29.1899C16.8175 31.4537 17.4609 33.652 18.6779 35.5472L18.9704 36.0026L17.8244 40.0729L22.0356 38.9889Z" fill="white"/>
<path d="M24.6139 22.586L23.6932 22.5358C23.404 22.5201 23.1203 22.6167 22.9017 22.8066C22.4554 23.1942 21.7417 23.9436 21.5224 24.9201C21.1955 26.3762 21.7007 28.1591 23.0083 29.9421C24.3158 31.725 26.7525 34.5778 31.0613 35.7962C32.4498 36.1888 33.542 35.9241 34.3847 35.385C35.0522 34.9581 35.5123 34.2728 35.6781 33.4981L35.8251 32.8115C35.8718 32.5933 35.761 32.3718 35.5583 32.2784L32.4466 30.8441C32.2446 30.751 32.005 30.8098 31.8692 30.9859L30.6476 32.5695C30.5553 32.6892 30.3973 32.7366 30.2547 32.6865C29.4181 32.3925 26.6158 31.2189 25.0782 28.257C25.0115 28.1285 25.0281 27.9726 25.1227 27.8631L26.2902 26.5125C26.4095 26.3746 26.4396 26.1807 26.3679 26.0131L25.0266 22.875C24.9552 22.7079 24.7952 22.5959 24.6139 22.586Z" fill="white"/>
</g>
</g>
<defs>
<filter id="filter0_d_1_669" x="0.142314" y="0.784648" width="60.9413" height="60.9412" filterUnits="userSpaceOnUse" color-interpolation-filters="sRGB">
<feFlood flood-opacity="0" result="BackgroundImageFix"/>
<feColorMatrix in="SourceAlpha" type="matrix" values="0 0 0 0 0 0 0 0 0 0 0 0 0 0 0 0 0 0 127 0" result="hardAlpha"/>
<feOffset dx="2.03138" dy="2.03138"/>
<feGaussianBlur stdDeviation="5.07844"/>
<feComposite in2="hardAlpha" operator="out"/>
<feColorMatrix type="matrix" values="0 0 0 0 0 0 0 0 0 0 0 0 0 0 0 0 0 0 0.25 0"/>
<feBlend mode="normal" in2="BackgroundImageFix" result="effect1_dropShadow_1_669"/>
<feBlend mode="normal" in="SourceGraphic" in2="effect1_dropShadow_1_669" result="shape"/>
</filter>
<clipPath id="clip0_1_669">
<rect x="8.26782" y="8.91016" width="40.6275" height="40.6275" rx="10.1569" fill="white"/>
</clipPath>
</defs>
</svg>
